# xmcd
#
# Track frame offsets:
#	150
#	13589
#	42199
#	70658
#	99236
#	132512
#
# Disc length: 2170 seconds
#
# Revision: 0
# Processed by: cddbd v1.5.2PL0 Copyright (c) Steve Scherf et al.
# Submitted via: audiograbber 1.83.01
#
DISCID=45087806
DTITLE=Ian Carey Project - Get Shaky [CDs)
DYEAR=2009
DGENRE=House
TTITLE0=Get Shaky (Radio Edit)
TTITLE1=Get Shaky (Ian Carey Alternate Mix)
TTITLE2=Get Shaky (Ian Carey Original Mix)
TTITLE3=Get Shaky (Ian Carey TV Edit)
TTITLE4=Get Shaky (Stonebridge Remix)
TTITLE5=Get Shaky (Brad Holland Remix)
EXTD=
EXTT0=
EXTT1=
EXTT2=
EXTT3=
EXTT4=
EXTT5=
PLAYORDER=
